<mxfile host="app.diagrams.net" modified="2024-05-05T12:11:47.096Z" agent="Mozilla/5.0 (Macintosh; Intel Mac OS X 10_15_7) AppleWebKit/537.36 (KHTML, like Gecko) Chrome/120.0.0.0 YaBrowser/24.1.0.0 Safari/537.36" version="24.3.1" etag="mwOQl_KZEXM6tC1iQCJz" type="github">
  <diagram name="Страница — 1" id="hnV5HWe_6OBlve2uPmo5">
    <mxGraphModel>
      <root>
        <mxCell id="0" />
        <mxCell id="1" parent="0" />
      </root>
    </mxGraphModel>
  </diagram>
</mxfile>
